<svg width="1264" height="746" viewBox="0 0 1264 746" fill="none" xmlns="http://www.w3.org/2000/svg">
<mask id="mask0_742_1417" style="mask-type:luminance" maskUnits="userSpaceOnUse" x="0" y="0" width="1264" height="746">
<path d="M1264 0.914185H0.369995V745.354H1264V0.914185Z" fill="white"/>
</mask>
<g mask="url(#mask0_742_1417)">
<g opacity="0.169998">
<mask id="mask1_742_1417" style="mask-type:luminance" maskUnits="userSpaceOnUse" x="-1" y="-2" width="718" height="793">
<path d="M-0.191284 790.731H716.1V-1.49115H-0.191284V790.731Z" fill="white"/>
</mask>
<g mask="url(#mask1_742_1417)">
<path d="M40.4337 848.25C40.6996 848.22 40.9656 848.188 41.2316 848.156C59.6522 845.984 73.7569 831.359 75.3227 813.66L79.8728 762.258C81.1853 746.401 93.4583 741.043 98.7003 739.432C103.961 737.816 117.219 735.329 127.912 747.499L162.877 786.759C174.916 800.275 195.28 804.31 211.579 795.815C211.815 795.692 212.05 795.569 212.286 795.447C234.131 784.01 238.997 755.919 222.885 737.749L188.078 698.499C159.902 666.339 116.277 654.78 74.5976 667.586C32.9372 680.386 5.0016 714.332 1.14651 755.936L-3.28014 807.241C-5.3288 830.991 15.7151 851.121 40.4337 848.25Z" fill="#1C4645"/>
<path d="M337.891 488.415L388.497 512.503C412.045 523.714 439.934 509.853 444.482 485.06C444.53 484.803 444.577 484.547 444.623 484.289C447.552 468.143 438.745 452.096 423.414 444.799L373.205 420.899C358.438 413.944 357.713 400.694 358.034 395.444C358.337 390.199 361.119 377.458 376.881 372.614L416.242 360.082C435.151 354.062 446.179 335.436 442.191 316.751C442.139 316.502 442.085 316.254 442.031 316.005C437.318 294.105 413.397 281.219 391.255 288.354L351.642 301.116C310.101 314.277 282.269 348.586 279.303 390.311C276.321 432.044 298.957 469.868 337.891 488.415Z" fill="#1C4645"/>
<path d="M73.8337 143.167C95.4428 149.605 117.396 149.596 137.667 143.367C156.436 137.6 173.517 126.804 186.903 111.2L220.565 72.7069C236.205 54.8234 231.229 27.4382 209.842 16.2623C209.145 15.8987 208.447 15.5366 207.747 15.1759C191.622 6.8501 171.539 10.932 159.813 24.4048L126.377 62.828C115.624 75.2478 102.32 72.5963 97.2334 70.9917C91.7603 69.5023 79.6045 64.1235 78.0355 48.3581L73.2717 -1.74242C71.5871 -19.4487 57.0834 -33.5594 38.617 -35.4973C38.351 -35.5261 38.085 -35.5534 37.8206 -35.5807C13.3633 -38.1004 -7.38615 -18.4941 -5.14751 4.94856L-0.33139 55.3976C3.30048 97.0799 31.958 130.674 73.8337 143.167Z" fill="#1C4645"/>
<path d="M223.44 612.444L308.923 674.375C326.307 686.969 351.17 683.505 363.995 666.631C364.15 666.428 364.304 666.225 364.459 666.022C376.916 649.574 373.361 626.592 356.448 614.319L271.026 552.332C253.82 539.847 229.32 542.941 216.086 559.27C202.64 575.863 205.947 599.771 223.44 612.444Z" fill="#1C4645"/>
<path d="M235.332 234.911C249.48 251.652 275.11 254.288 292.654 240.808L354.889 192.981C370.821 180.739 373.685 158.66 361.567 142.917C360.94 142.104 360.312 141.293 359.68 140.485C346.707 123.885 322.266 121.002 305.419 134.029L240.983 183.859C224.687 196.46 222.157 219.321 235.332 234.911Z" fill="#1C4645"/>
<path d="M16.4919 653.264C16.6407 653.247 16.7911 653.229 16.9399 653.211C27.2941 651.99 35.2243 643.769 36.1046 633.82L38.6615 604.926C39.3992 596.012 46.2988 593 49.2452 592.094C52.2026 591.186 59.6547 589.788 65.6661 596.629L85.3216 618.697C92.0882 626.296 103.536 628.564 112.698 623.788C112.831 623.72 112.963 623.65 113.096 623.582C125.375 617.153 128.111 601.361 119.053 591.148L99.4881 569.083C83.6497 551.005 59.1259 544.507 35.6961 551.707C12.2774 558.903 -3.42639 577.985 -5.59221 601.371L-8.08101 630.212C-9.23199 643.563 2.59611 654.878 16.4919 653.264Z" fill="#1C4645"/>
<path d="M183.703 450.987L212.15 464.528C225.387 470.83 241.064 463.039 243.621 449.102C243.648 448.957 243.675 448.813 243.7 448.667C245.347 439.591 240.396 430.572 231.778 426.468L203.555 413.033C195.254 409.124 194.846 401.676 195.026 398.724C195.195 395.776 196.76 388.613 205.621 385.891L227.748 378.847C238.376 375.462 244.576 364.992 242.334 354.489C242.304 354.349 242.274 354.21 242.243 354.071C239.593 341.758 226.147 334.516 213.7 338.525L191.432 345.699C168.082 353.098 152.435 372.385 150.769 395.839C149.093 419.299 161.817 440.561 183.703 450.987Z" fill="#1C4645"/>
<path d="M35.2673 256.912C47.4152 260.53 59.7547 260.526 71.1506 257.024C81.7011 253.783 91.3032 247.715 98.8265 238.942L117.751 217.304C126.542 207.251 123.745 191.857 111.722 185.575C111.331 185.37 110.938 185.166 110.545 184.964C101.48 180.284 90.1902 182.578 83.5993 190.152L64.8035 211.751C58.7589 218.733 51.2814 217.242 48.4206 216.34C45.3444 215.503 38.5113 212.48 37.6295 203.618L34.9507 175.454C34.0039 165.5 25.852 157.569 15.471 156.479C15.3221 156.462 15.1717 156.447 15.0229 156.432C1.27438 155.015 -10.3891 166.037 -9.13042 179.216L-6.42314 207.574C-4.38239 231.004 11.7267 249.889 35.2673 256.912Z" fill="#1C4645"/>
<path d="M119.366 520.709L167.419 555.523C177.191 562.602 191.167 560.655 198.377 551.17C198.464 551.055 198.551 550.941 198.637 550.827C205.639 541.58 203.641 528.662 194.134 521.764L146.116 486.918C136.444 479.899 122.672 481.639 115.232 490.819C107.674 500.145 109.533 513.585 119.366 520.709Z" fill="#1C4645"/>
<path d="M126.051 308.485C134.004 317.896 148.412 319.378 158.273 311.801L193.258 284.915C202.214 278.034 203.824 265.623 197.012 256.773C196.66 256.315 196.306 255.859 195.951 255.406C188.659 246.074 174.92 244.453 165.449 251.777L129.227 279.788C120.067 286.872 118.645 299.722 126.051 308.485Z" fill="#1C4645"/>
<path d="M1.65714 532.444C1.73471 532.435 1.8123 532.426 1.88987 532.417C7.24585 531.785 11.3479 527.532 11.8039 522.385L13.1274 507.437C13.509 502.824 17.0775 501.267 18.6021 500.799C20.1315 500.327 23.9882 499.605 27.0976 503.144L37.2665 514.561C40.767 518.493 46.6897 519.665 51.4298 517.196C51.4979 517.159 51.566 517.124 51.6357 517.088C57.9875 513.762 59.4028 505.593 54.7182 500.309L44.5952 488.894C36.4005 479.541 23.7143 476.179 11.5933 479.903C-0.52293 483.626 -8.64793 493.498 -9.76883 505.597L-11.056 520.518C-11.6513 527.425 -5.53218 533.279 1.65714 532.444Z" fill="#1C4645"/>
<path d="M88.1637 427.796L102.881 434.803C109.728 438.062 117.839 434.031 119.163 426.821C119.177 426.746 119.19 426.671 119.204 426.596C120.056 421.901 117.494 417.234 113.036 415.111L98.4339 408.161C94.1387 406.139 93.9281 402.286 94.0215 400.758C94.1102 399.234 94.9192 395.528 99.5026 394.119L110.949 390.475C116.449 388.723 119.655 383.307 118.496 377.873C118.48 377.8 118.465 377.729 118.45 377.656C117.079 371.287 110.123 367.54 103.682 369.614L92.1628 373.326C80.0814 377.153 71.9881 387.131 71.1253 399.266C70.2577 411.402 76.8406 422.402 88.1637 427.796Z" fill="#1C4645"/>
<path d="M11.3706 327.393C17.6544 329.266 24.0394 329.262 29.9353 327.45C35.3925 325.773 40.3606 322.635 44.2537 318.096L54.0427 306.902C58.5912 301.702 57.1442 293.736 50.9238 290.486C50.7211 290.38 50.5185 290.276 50.3158 290.17C45.6264 287.75 39.7859 288.936 36.3757 292.855L26.6517 304.029C23.5233 307.641 19.6555 306.87 18.1752 306.403C16.5841 305.97 13.0488 304.406 12.5929 299.82L11.2076 285.25C10.7168 280.101 6.49911 275.997 1.12889 275.433C1.05131 275.426 0.973736 275.418 0.897739 275.409C-6.21559 274.677 -12.2492 280.379 -11.5985 287.197L-10.1989 301.868C-9.14134 313.99 -0.807369 323.759 11.3706 327.393Z" fill="#1C4645"/>
<path d="M54.8787 463.869L79.7398 481.879C84.7949 485.542 92.0254 484.534 95.7554 479.628C95.7998 479.569 95.8457 479.51 95.89 479.451C99.5124 474.667 98.4786 467.984 93.5595 464.414L68.7175 446.387C63.7146 442.756 56.5886 443.656 52.7398 448.405C48.8293 453.231 49.7919 460.182 54.8787 463.869Z" fill="#1C4645"/>
<path d="M58.3374 354.074C62.4522 358.942 69.9059 359.709 75.0069 355.789L93.1077 341.88C97.7401 338.319 98.5729 331.898 95.0487 327.321C94.8666 327.084 94.6846 326.848 94.5009 326.613C90.7281 321.786 83.6196 320.947 78.7196 324.736L59.9808 339.227C55.2423 342.892 54.5061 349.541 58.3374 354.074Z" fill="#1C4645"/>
<path d="M-7.40073 458.678C-7.36748 458.674 -7.33423 458.671 -7.30099 458.666C-4.99584 458.395 -3.23057 456.565 -3.03426 454.349L-2.4643 447.914C-2.29965 445.93 -0.763945 445.26 -0.106916 445.058C0.550114 444.855 2.20931 444.545 3.5487 446.067L7.92467 450.981C9.43188 452.674 11.9808 453.178 14.0216 452.114C14.0501 452.099 14.0802 452.084 14.1087 452.069C16.8428 450.637 17.4524 447.122 15.4354 444.848L11.08 439.934C7.55262 435.91 2.09215 434.463 -3.1245 436.066C-8.33957 437.667 -11.8353 441.916 -12.3182 447.124L-12.8723 453.545C-13.1288 456.518 -10.4943 459.037 -7.40073 458.678Z" fill="#1C4645"/>
<path d="M29.8309 413.638L36.1653 416.653C39.1132 418.056 42.6026 416.322 43.1726 413.218C43.1789 413.187 43.1836 413.153 43.19 413.121C43.5573 411.1 42.4538 409.093 40.5349 408.179L34.2512 405.188C32.402 404.317 32.3118 402.659 32.3514 402.002C32.3894 401.346 32.7377 399.75 34.7103 399.144L39.6373 397.576C42.0042 396.821 43.3847 394.491 42.886 392.152C42.8797 392.121 42.8718 392.089 42.8654 392.059C42.2749 389.317 39.281 387.705 36.5104 388.597L31.5519 390.195C26.3526 391.842 22.8696 396.136 22.4975 401.359C22.1239 406.582 24.9578 411.317 29.8309 413.638Z" fill="#1C4645"/>
<path d="M-3.22009 370.425C-0.515984 371.231 2.23246 371.229 4.77033 370.449C7.11822 369.728 9.25712 368.376 10.9322 366.423L15.1451 361.605C17.1035 359.367 16.4813 355.94 13.8041 354.541C13.717 354.496 13.6283 354.45 13.5413 354.405C11.5227 353.362 9.00856 353.873 7.54093 355.559L3.35653 360.369C2.01081 361.923 0.345278 361.591 -0.291168 361.391C-0.976696 361.205 -2.49815 360.531 -2.69447 358.558L-3.28975 352.287C-3.5019 350.071 -5.31625 348.305 -7.62773 348.062C-7.66097 348.058 -7.69422 348.055 -7.72747 348.052C-10.7894 347.737 -13.3858 350.19 -13.1056 353.125L-12.5024 359.44C-12.048 364.656 -8.46208 368.861 -3.22009 370.425Z" fill="#1C4645"/>
<path d="M15.5055 429.162L26.2048 436.913C28.3817 438.489 31.4926 438.056 33.098 435.944C33.117 435.92 33.1376 435.894 33.1566 435.868C34.716 433.809 34.2712 430.933 32.1528 429.397L21.4615 421.638C19.3083 420.075 16.2417 420.462 14.5856 422.506C12.9027 424.583 13.3159 427.575 15.5055 429.162Z" fill="#1C4645"/>
<path d="M16.994 381.909C18.7656 384.005 21.9732 384.335 24.1691 382.647L31.9584 376.661C33.9533 375.129 34.3111 372.365 32.7943 370.395C32.7152 370.292 32.6376 370.191 32.5585 370.091C30.9341 368.012 27.8753 367.651 25.7665 369.282L17.7017 375.52C15.6609 377.097 15.3443 379.958 16.994 381.909Z" fill="#1C4645"/>
</g>
</g>
</g>
</svg>
