<svg width="1095" height="722" viewBox="0 0 1095 722" fill="none" xmlns="http://www.w3.org/2000/svg">
<mask id="mask0_742_1363" style="mask-type:luminance" maskUnits="userSpaceOnUse" x="0" y="0" width="1095" height="722">
<path d="M0.0866699 0.142761H1094.55V722H0.0866699V0.142761Z" fill="white"/>
</mask>
<g mask="url(#mask0_742_1363)">
<g opacity="0.169998">
<mask id="mask1_742_1363" style="mask-type:luminance" maskUnits="userSpaceOnUse" x="474" y="-3" width="622" height="770">
<path d="M1095.04 766H474.639V-2.18964H1095.04V766Z" fill="white"/>
</mask>
<g mask="url(#mask1_742_1363)">
<path d="M1059.85 821.775C1059.62 821.745 1059.39 821.715 1059.16 821.684C1043.21 819.577 1030.99 805.396 1029.63 788.234L1025.69 738.392C1024.56 723.015 1013.93 717.82 1009.39 716.258C1004.83 714.69 993.347 712.279 984.086 724.08L953.801 762.149C943.374 775.255 925.736 779.168 911.619 770.93C911.414 770.811 911.211 770.692 911.007 770.573C892.087 759.484 887.871 732.244 901.827 714.626L931.974 676.566C956.378 645.382 994.163 634.174 1030.26 646.591C1066.35 659.003 1090.54 691.919 1093.88 732.261L1097.71 782.009C1099.49 805.039 1081.26 824.559 1059.85 821.775Z" fill="#3FBB69"/>
<path d="M802.216 472.854L758.385 496.211C737.989 507.082 713.835 493.642 709.895 469.601C709.854 469.351 709.813 469.103 709.773 468.853C707.236 453.197 714.864 437.637 728.142 430.561L771.63 407.386C784.42 400.643 785.048 387.794 784.77 382.704C784.508 377.617 782.099 365.263 768.446 360.566L734.354 348.414C717.977 342.577 708.425 324.516 711.879 306.398C711.924 306.157 711.971 305.916 712.018 305.675C716.1 284.439 736.818 271.943 755.997 278.862L790.307 291.237C826.286 303.998 850.393 337.267 852.961 377.726C855.544 418.194 835.938 454.869 802.216 472.854Z" fill="#3FBB69"/>
<path d="M1030.92 138.081C1012.21 144.323 993.194 144.315 975.637 138.275C959.38 132.683 944.586 122.215 932.992 107.083L903.836 69.7583C890.29 52.4172 894.599 25.8628 913.124 15.026C913.727 14.6734 914.332 14.3222 914.938 13.9726C928.904 5.89929 946.299 9.85732 956.455 22.9215L985.415 60.1791C994.729 72.2221 1006.25 69.651 1010.66 68.0951C1015.4 66.6509 1025.93 61.4352 1027.28 46.1481L1031.41 -2.43257C1032.87 -19.6017 1045.43 -33.2844 1061.43 -35.1635C1061.66 -35.1914 1061.89 -35.2179 1062.12 -35.2443C1083.3 -37.6876 1101.27 -18.6761 1099.33 4.05544L1095.16 52.9741C1092.02 93.3919 1067.19 125.967 1030.92 138.081Z" fill="#3FBB69"/>
<path d="M901.346 593.121L827.306 653.173C812.25 665.385 790.716 662.026 779.607 645.664C779.473 645.467 779.34 645.27 779.205 645.073C768.416 629.125 771.495 606.84 786.144 594.94L860.13 534.833C875.033 522.727 896.253 525.727 907.716 541.561C919.362 557.65 916.497 580.832 901.346 593.121Z" fill="#3FBB69"/>
<path d="M891.046 227.041C878.792 243.275 856.593 245.831 841.398 232.76L787.494 186.384C773.695 174.513 771.214 153.104 781.71 137.839C782.253 137.05 782.797 136.264 783.344 135.481C794.58 119.384 815.75 116.588 830.341 129.22L886.152 177.538C900.266 189.757 902.457 211.925 891.046 227.041Z" fill="#3FBB69"/>
<path d="M1080.59 632.704C1080.46 632.688 1080.33 632.67 1080.2 632.653C1071.23 631.468 1064.36 623.497 1063.6 613.85L1061.39 585.832C1060.75 577.189 1054.77 574.268 1052.22 573.389C1049.66 572.509 1043.21 571.153 1038 577.787L1020.97 599.186C1015.11 606.554 1005.2 608.753 997.263 604.122C997.147 604.056 997.034 603.988 996.918 603.922C986.283 597.688 983.913 582.375 991.758 572.473L1008.7 551.076C1022.42 533.547 1043.66 527.246 1063.96 534.228C1084.24 541.205 1097.84 559.708 1099.72 582.385L1101.87 610.352C1102.87 623.297 1092.63 634.269 1080.59 632.704Z" fill="#3FBB69"/>
<path d="M935.763 436.563L911.125 449.693C899.659 455.804 886.081 448.249 883.867 434.735C883.843 434.594 883.82 434.455 883.798 434.314C882.372 425.513 886.66 416.767 894.124 412.788L918.569 399.761C925.759 395.97 926.112 388.748 925.956 385.886C925.809 383.027 924.455 376.082 916.78 373.441L897.615 366.611C888.41 363.329 883.04 353.177 884.981 342.992C885.008 342.857 885.034 342.722 885.06 342.587C887.355 330.648 899.001 323.625 909.782 327.513L929.069 334.469C949.293 341.643 962.846 360.345 964.288 383.088C965.74 405.836 954.72 426.453 935.763 436.563Z" fill="#3FBB69"/>
<path d="M1064.33 248.376C1053.81 251.884 1043.12 251.88 1033.25 248.485C1024.11 245.342 1015.79 239.458 1009.28 230.951L992.887 209.969C985.272 200.221 987.695 185.294 998.108 179.203C998.447 179.004 998.787 178.806 999.127 178.611C1006.98 174.072 1016.76 176.297 1022.47 183.641L1038.75 204.585C1043.98 211.355 1050.46 209.909 1052.94 209.035C1055.6 208.222 1061.52 205.291 1062.28 196.698L1064.6 169.388C1065.42 159.737 1072.48 152.046 1081.47 150.99C1081.6 150.973 1081.73 150.959 1081.86 150.944C1093.77 149.57 1103.87 160.257 1102.78 173.037L1100.44 200.534C1098.67 223.254 1084.72 241.566 1064.33 248.376Z" fill="#3FBB69"/>
<path d="M991.488 504.169L949.867 537.927C941.404 544.791 929.298 542.903 923.054 533.706C922.978 533.594 922.903 533.484 922.829 533.374C916.764 524.407 918.494 511.881 926.729 505.191L968.319 471.403C976.696 464.597 988.624 466.284 995.068 475.186C1001.61 484.229 1000 497.261 991.488 504.169Z" fill="#3FBB69"/>
<path d="M985.697 298.384C978.809 307.509 966.33 308.946 957.789 301.598L927.487 275.529C919.73 268.856 918.336 256.821 924.236 248.24C924.54 247.796 924.848 247.354 925.155 246.915C931.471 237.866 943.371 236.294 951.573 243.396L982.946 270.557C990.881 277.425 992.112 289.886 985.697 298.384Z" fill="#3FBB69"/>
<path d="M1093.44 515.55C1093.37 515.541 1093.3 515.532 1093.24 515.523C1088.6 514.911 1085.04 510.787 1084.65 505.796L1083.5 491.301C1083.17 486.828 1080.08 485.318 1078.76 484.864C1077.44 484.407 1074.1 483.706 1071.4 487.138L1062.6 498.209C1059.56 502.021 1054.43 503.159 1050.33 500.764C1050.27 500.728 1050.21 500.695 1050.15 500.659C1044.65 497.435 1043.42 489.513 1047.48 484.389L1056.25 473.32C1063.35 464.251 1074.33 460.991 1084.83 464.602C1095.33 468.212 1102.36 477.785 1103.33 489.517L1104.45 503.986C1104.97 510.682 1099.67 516.359 1093.44 515.55Z" fill="#3FBB69"/>
<path d="M1018.51 414.076L1005.77 420.87C999.835 424.03 992.81 420.122 991.663 413.13C991.651 413.058 991.64 412.985 991.628 412.913C990.89 408.36 993.109 403.835 996.97 401.776L1009.62 395.037C1013.34 393.076 1013.52 389.339 1013.44 387.858C1013.36 386.38 1012.66 382.787 1008.69 381.42L998.778 377.887C994.014 376.189 991.237 370.936 992.241 365.668C992.254 365.597 992.268 365.528 992.281 365.457C993.468 359.281 999.493 355.648 1005.07 357.659L1015.05 361.258C1025.51 364.97 1032.52 374.644 1033.27 386.411C1034.02 398.18 1028.32 408.846 1018.51 414.076Z" fill="#3FBB69"/>
<path d="M1085.03 316.718C1079.58 318.533 1074.05 318.531 1068.95 316.773C1064.22 315.147 1059.92 312.104 1056.54 307.703L1048.07 296.848C1044.13 291.806 1045.38 284.082 1050.77 280.931C1050.94 280.828 1051.12 280.726 1051.29 280.624C1055.36 278.277 1060.41 279.428 1063.37 283.227L1071.79 294.062C1074.5 297.565 1077.85 296.817 1079.13 296.365C1080.51 295.944 1083.57 294.428 1083.97 289.981L1085.17 275.853C1085.59 270.861 1089.24 266.881 1093.9 266.334C1093.96 266.327 1094.03 266.319 1094.1 266.311C1100.26 265.601 1105.48 271.13 1104.92 277.741L1103.71 291.967C1102.79 303.721 1095.57 313.194 1085.03 316.718Z" fill="#3FBB69"/>
<path d="M1047.34 449.053L1025.81 466.517C1021.43 470.068 1015.17 469.091 1011.94 464.334C1011.9 464.276 1011.86 464.219 1011.82 464.162C1008.68 459.524 1009.58 453.043 1013.84 449.581L1035.36 432.101C1039.69 428.581 1045.86 429.453 1049.19 434.058C1052.58 438.737 1051.75 445.478 1047.34 449.053Z" fill="#3FBB69"/>
<path d="M1044.35 342.589C1040.78 347.31 1034.33 348.053 1029.91 344.252L1014.23 330.765C1010.22 327.312 1009.5 321.086 1012.55 316.647C1012.71 316.418 1012.86 316.189 1013.02 315.961C1016.29 311.28 1022.45 310.466 1026.69 314.141L1042.92 328.192C1047.03 331.746 1047.66 338.193 1044.35 342.589Z" fill="#3FBB69"/>
<path d="M1101.28 444.02C1101.25 444.016 1101.23 444.013 1101.2 444.008C1099.2 443.745 1097.67 441.97 1097.5 439.822L1097.01 433.583C1096.87 431.658 1095.54 431.009 1094.97 430.813C1094.4 430.616 1092.96 430.315 1091.8 431.792L1088.01 436.556C1086.7 438.197 1084.5 438.687 1082.73 437.655C1082.7 437.641 1082.68 437.626 1082.65 437.611C1080.29 436.223 1079.76 432.814 1081.5 430.609L1085.28 425.844C1088.33 421.942 1093.06 420.539 1097.58 422.094C1102.1 423.646 1105.12 427.766 1105.54 432.816L1106.02 439.042C1106.24 441.925 1103.96 444.368 1101.28 444.02Z" fill="#3FBB69"/>
<path d="M1069.04 400.347L1063.55 403.271C1061 404.631 1057.97 402.949 1057.48 399.94C1057.48 399.909 1057.47 399.877 1057.47 399.846C1057.15 397.886 1058.1 395.939 1059.77 395.053L1065.21 392.153C1066.81 391.308 1066.89 389.701 1066.85 389.063C1066.82 388.427 1066.52 386.88 1064.81 386.292L1060.54 384.772C1058.49 384.04 1057.3 381.781 1057.73 379.512C1057.73 379.483 1057.74 379.452 1057.75 379.422C1058.26 376.763 1060.85 375.2 1063.25 376.065L1067.55 377.615C1072.05 379.212 1075.07 383.376 1075.39 388.44C1075.71 393.505 1073.26 398.096 1069.04 400.347Z" fill="#3FBB69"/>
<path d="M1097.66 358.445C1095.32 359.226 1092.94 359.225 1090.74 358.468C1088.71 357.769 1086.86 356.458 1085.41 354.564L1081.76 349.892C1080.06 347.722 1080.6 344.399 1082.92 343.043C1082.99 342.999 1083.07 342.955 1083.15 342.911C1084.89 341.9 1087.07 342.395 1088.34 344.03L1091.97 348.693C1093.13 350.201 1094.57 349.879 1095.13 349.685C1095.72 349.504 1097.04 348.851 1097.21 346.938L1097.72 340.857C1097.91 338.709 1099.48 336.996 1101.48 336.761C1101.51 336.756 1101.54 336.753 1101.57 336.75C1104.22 336.445 1106.47 338.823 1106.23 341.669L1105.7 347.793C1105.31 352.851 1102.2 356.928 1097.66 358.445Z" fill="#3FBB69"/>
<path d="M1081.44 415.4L1072.18 422.917C1070.29 424.445 1067.6 424.024 1066.21 421.976C1066.19 421.953 1066.17 421.928 1066.16 421.903C1064.81 419.906 1065.19 417.118 1067.03 415.628L1076.29 408.104C1078.15 406.589 1080.81 406.964 1082.24 408.946C1083.7 410.96 1083.34 413.862 1081.44 415.4Z" fill="#3FBB69"/>
<path d="M1080.15 369.579C1078.62 371.611 1075.84 371.931 1073.94 370.294L1067.19 364.489C1065.47 363.004 1065.16 360.324 1066.47 358.414C1066.54 358.314 1066.61 358.216 1066.67 358.119C1068.08 356.103 1070.73 355.754 1072.56 357.334L1079.54 363.383C1081.31 364.913 1081.58 367.686 1080.15 369.579Z" fill="#3FBB69"/>
</g>
</g>
</g>
</svg>
