<svg width="170" height="59" viewBox="0 0 170 59" fill="none" xmlns="http://www.w3.org/2000/svg">
<g id="Group">
<path id="Vector" d="M82.5943 26.9238C83.637 26.8865 84.5303 26.5451 85.2743 25.8998C86.0063 25.2425 86.373 24.4611 86.373 23.5545C86.373 22.6118 85.989 21.8118 85.2197 21.1531C84.449 20.4958 83.525 20.1665 82.445 20.1665H76.9357V26.9238H82.5943ZM90.7477 23.5545C90.7477 25.1931 90.2383 26.6758 89.221 28.0038C88.241 29.3185 86.9503 30.2558 85.349 30.8145L89.5743 39.3771C89.8357 39.9105 89.8663 40.4625 89.6677 41.0331C89.4823 41.6038 89.1157 42.0265 88.569 42.2985C88.2597 42.4478 87.937 42.5225 87.601 42.5225C86.6957 42.5225 86.045 42.1131 85.6477 41.2945L80.7143 31.2985H76.9357V40.1771C76.9357 40.7731 76.7183 41.2878 76.2837 41.7225C75.8623 42.1438 75.3477 42.3545 74.7383 42.3545C74.1437 42.3545 73.629 42.1438 73.1943 41.7225C72.7717 41.2878 72.561 40.7731 72.561 40.1771V17.9891C72.561 17.3811 72.7717 16.8665 73.1943 16.4438C73.629 16.0091 74.1437 15.7931 74.7383 15.7931H82.445C84.741 15.7931 86.6957 16.5491 88.309 18.0638C89.9343 19.5771 90.7477 21.4078 90.7477 23.5545Z" fill="white"/>
<path id="Vector_2" d="M108.803 32.4712L105.211 23.8339L101.637 32.4712H108.803ZM95.178 42.3552C94.6194 42.1192 94.222 41.7219 93.986 41.1645C93.7634 40.6059 93.7634 40.0472 93.986 39.4885L96.35 33.8112V33.7925L103.201 17.2632C103.225 17.2019 103.257 17.1392 103.294 17.0765L103.33 16.9845C103.369 16.9352 103.393 16.9032 103.405 16.8912C103.405 16.8792 103.423 16.8472 103.461 16.7979C103.498 16.7605 103.523 16.7365 103.535 16.7232C103.535 16.7112 103.554 16.6859 103.591 16.6485C103.641 16.5992 103.666 16.5685 103.666 16.5552C103.678 16.5432 103.703 16.5245 103.741 16.5005C103.79 16.4499 103.821 16.4259 103.833 16.4259C103.821 16.4259 103.846 16.4072 103.907 16.3699C103.958 16.3325 103.989 16.3072 104.001 16.2952L104.075 16.2392C104.137 16.2019 104.174 16.1832 104.187 16.1832C104.211 16.1712 104.255 16.1525 104.317 16.1272C104.379 16.0899 104.398 16.0779 104.373 16.0899C104.347 16.1032 104.373 16.0899 104.447 16.0525C104.51 16.0405 104.553 16.0285 104.578 16.0165C104.59 16.0165 104.634 16.0032 104.709 15.9792L104.783 15.9605C104.807 15.9605 104.85 15.9539 104.913 15.9419L105.006 15.9232H105.118H105.211H105.322H105.434L105.546 15.9419L105.639 15.9605C105.663 15.9605 105.707 15.9725 105.77 15.9979C105.843 16.0099 105.869 16.0165 105.843 16.0165C105.993 16.0525 106.129 16.1085 106.253 16.1832C106.241 16.1712 106.265 16.1832 106.327 16.2205C106.39 16.2579 106.426 16.2832 106.439 16.2952L106.514 16.3512C106.563 16.3885 106.594 16.4139 106.607 16.4259C106.619 16.4259 106.645 16.4445 106.681 16.4819C106.718 16.5179 106.749 16.5432 106.774 16.5552C106.774 16.5685 106.793 16.5925 106.83 16.6299C106.879 16.6805 106.905 16.7112 106.905 16.7232L106.961 16.7979C107.01 16.8472 107.035 16.8792 107.035 16.8912C107.035 16.9032 107.054 16.9352 107.09 16.9845C107.129 17.0339 107.146 17.0645 107.146 17.0765C107.185 17.1392 107.215 17.2019 107.239 17.2632L114.09 33.7925V33.8112L116.454 39.4885C116.677 40.0472 116.677 40.6059 116.454 41.1645C116.218 41.7219 115.821 42.1192 115.262 42.3552C114.989 42.4672 114.71 42.5232 114.425 42.5232C113.445 42.5232 112.769 42.0699 112.395 41.1645L110.609 36.8459H99.8314L98.0447 41.1645C97.6714 42.0699 96.9954 42.5232 96.0154 42.5232C95.73 42.5232 95.45 42.4672 95.178 42.3552Z" fill="white"/>
<path id="Vector_3" d="M138.363 41.6851H138.344V41.6665L124.96 24.4491V40.3265C124.96 40.9345 124.743 41.4491 124.309 41.8718C123.887 42.3051 123.372 42.5225 122.764 42.5225C122.156 42.5225 121.641 42.3051 121.219 41.8718C120.784 41.4491 120.568 40.9345 120.568 40.3265V18.0265C120.568 17.5558 120.704 17.1331 120.977 16.7611C121.249 16.3758 121.609 16.1091 122.057 15.9598C122.491 15.7998 122.937 15.7865 123.397 15.9238C123.844 16.0598 124.209 16.3145 124.495 16.6865L137.879 33.9238V18.0265C137.879 17.4185 138.089 16.9038 138.512 16.4811C138.945 16.0478 139.467 15.8305 140.076 15.8305C140.683 15.8305 141.199 16.0478 141.62 16.4811C142.055 16.9038 142.272 17.4185 142.272 18.0265V40.3638C142.272 40.3891 142.265 40.4265 142.253 40.4758V40.5691C142.253 40.5931 142.247 40.6305 142.235 40.6798C142.235 40.7305 142.228 40.7665 142.216 40.7918L142.197 40.8851C142.185 40.9465 142.172 40.9851 142.16 40.9971C142.16 41.0091 142.148 41.0398 142.123 41.0891C142.111 41.1398 142.097 41.1771 142.085 41.2011L142.048 41.2945L141.993 41.3878C141.98 41.4131 141.961 41.4491 141.937 41.4998L141.881 41.5545C141.868 41.5798 141.844 41.6171 141.807 41.6665L141.751 41.7411C141.739 41.7531 141.713 41.7785 141.676 41.8158C141.639 41.8651 141.613 41.8905 141.601 41.8905C141.601 41.9025 141.577 41.9278 141.527 41.9638C141.491 42.0025 141.459 42.0265 141.435 42.0385C141.471 42.0145 141.465 42.0198 141.416 42.0585L141.396 42.0758C141.297 42.1505 141.204 42.2131 141.117 42.2625H141.099C141 42.3118 140.9 42.3558 140.801 42.3931C140.752 42.4171 140.739 42.4238 140.764 42.4118C140.665 42.4478 140.559 42.4731 140.448 42.4865L140.392 42.5038C140.28 42.5171 140.175 42.5225 140.076 42.5225C140.001 42.5225 139.92 42.5171 139.833 42.5038C139.859 42.5171 139.845 42.5171 139.796 42.5038C139.721 42.4918 139.66 42.4798 139.609 42.4665C139.623 42.4798 139.597 42.4731 139.536 42.4478C139.473 42.4358 139.424 42.4238 139.387 42.4118C139.373 42.4118 139.349 42.3998 139.312 42.3745C139.249 42.3611 139.2 42.3438 139.163 42.3185C139.139 42.3185 139.113 42.3051 139.089 42.2811C139.039 42.2558 138.996 42.2371 138.959 42.2251C138.921 42.1998 138.896 42.1811 138.884 42.1691C138.847 42.1451 138.803 42.1131 138.753 42.0758C138.716 42.0518 138.692 42.0331 138.679 42.0198C138.617 41.9718 138.561 41.9211 138.512 41.8718L138.493 41.8531V41.8345C138.444 41.7851 138.4 41.7358 138.363 41.6851Z" fill="white"/>
<path id="Vector_4" d="M161.835 32.4712L158.243 23.8339L154.669 32.4712H161.835ZM148.21 42.3552C147.651 42.1192 147.254 41.7219 147.018 41.1645C146.795 40.6059 146.795 40.0472 147.018 39.4885L149.382 33.8112V33.7925L156.233 17.2632C156.257 17.2019 156.289 17.1392 156.326 17.0765L156.362 16.9845C156.401 16.9352 156.425 16.9032 156.437 16.8912C156.437 16.8792 156.455 16.8472 156.493 16.7979C156.53 16.7605 156.555 16.7365 156.567 16.7232C156.567 16.7112 156.586 16.6859 156.623 16.6485C156.673 16.5992 156.698 16.5685 156.698 16.5552C156.71 16.5432 156.735 16.5245 156.773 16.5005C156.822 16.4499 156.853 16.4259 156.865 16.4259C156.853 16.4259 156.878 16.4072 156.939 16.3699C156.99 16.3325 157.021 16.3072 157.033 16.2952L157.107 16.2392C157.169 16.2019 157.206 16.1832 157.219 16.1832C157.243 16.1712 157.287 16.1525 157.349 16.1272C157.411 16.0899 157.43 16.0779 157.405 16.0899C157.379 16.1032 157.405 16.0899 157.479 16.0525C157.542 16.0405 157.585 16.0285 157.61 16.0165C157.622 16.0165 157.666 16.0032 157.741 15.9792L157.815 15.9605C157.839 15.9605 157.882 15.9539 157.945 15.9419L158.038 15.9232H158.15H158.243H158.354H158.466L158.578 15.9419L158.671 15.9605C158.695 15.9605 158.739 15.9725 158.802 15.9979C158.875 16.0099 158.901 16.0165 158.875 16.0165C159.025 16.0525 159.161 16.1085 159.285 16.1832C159.273 16.1712 159.297 16.1832 159.359 16.2205C159.422 16.2579 159.458 16.2832 159.471 16.2952L159.546 16.3512C159.595 16.3885 159.626 16.4139 159.639 16.4259C159.651 16.4259 159.677 16.4445 159.713 16.4819C159.75 16.5179 159.781 16.5432 159.806 16.5552C159.806 16.5685 159.825 16.5925 159.862 16.6299C159.911 16.6805 159.937 16.7112 159.937 16.7232L159.993 16.7979C160.042 16.8472 160.067 16.8792 160.067 16.8912C160.067 16.9032 160.086 16.9352 160.122 16.9845C160.161 17.0339 160.178 17.0645 160.178 17.0765C160.217 17.1392 160.247 17.2019 160.271 17.2632L167.122 33.7925V33.8112L169.486 39.4885C169.709 40.0472 169.709 40.6059 169.486 41.1645C169.25 41.7219 168.853 42.1192 168.294 42.3552C168.021 42.4672 167.742 42.5232 167.457 42.5232C166.477 42.5232 165.801 42.0699 165.427 41.1645L163.641 36.8459H152.863L151.077 41.1645C150.703 42.0699 150.027 42.5232 149.047 42.5232C148.762 42.5232 148.482 42.4672 148.21 42.3552Z" fill="white"/>
<path id="Vector_5" d="M34.9848 58.2634C34.9688 58.266 34.9515 58.27 34.9342 58.2727C33.7808 58.4927 32.6342 57.8447 32.1822 56.7594L30.8688 53.61C30.4688 52.6367 29.6208 52.5367 29.2715 52.5367C28.9222 52.5367 28.0728 52.6367 27.6742 53.61L26.3608 56.7594C25.9088 57.8447 24.7622 58.4927 23.6088 58.2727C23.5915 58.27 23.5755 58.266 23.5582 58.2634C22.0102 57.966 21.1488 56.29 21.7528 54.834L23.0568 51.6887C24.1048 49.118 26.5008 47.546 29.2715 47.546C32.0422 47.546 34.4128 49.1434 35.4862 51.6887L36.7902 54.834C37.3942 56.29 36.5328 57.966 34.9848 58.2634Z" fill="white"/>
<path id="Vector_6" d="M9.77831 41.3558L7.21565 43.8518C6.02232 45.0145 4.06098 44.6811 3.28498 43.2078C3.27698 43.1918 3.26898 43.1771 3.26098 43.1611C2.75831 42.2011 2.96498 41.0198 3.74098 40.2638L6.28498 37.7865C7.03432 37.0625 6.80898 36.2145 6.68365 35.8905C6.55965 35.5651 6.13431 34.8171 5.08631 34.8171L2.46098 34.7891C1.19831 34.7758 0.156982 33.8158 0.0196483 32.5625C0.018315 32.5451 0.0169814 32.5291 0.0143148 32.5118C-0.144352 31.0411 1.03698 29.7665 2.51565 29.7878L5.16231 29.8251C7.93165 29.8505 10.3036 31.4718 11.3263 34.0425C12.3503 36.6131 11.7503 39.4345 9.77831 41.3558Z" fill="white"/>
<path id="Vector_7" d="M18.7135 14.5008C17.5415 15.3248 16.2175 15.7488 14.8695 15.7488C13.6215 15.7488 12.3735 15.3994 11.2522 14.6754L8.44419 12.9021C7.14019 12.0794 6.88552 10.2581 7.94952 9.13945C7.98419 9.10345 8.01886 9.06745 8.05352 9.03145C8.85752 8.19411 10.1495 8.06345 11.1295 8.68478L13.9215 10.4581C14.8215 11.0314 15.5695 10.6074 15.8442 10.4074C16.1429 10.2074 16.7669 9.63411 16.5429 8.61011L15.8175 5.36345C15.5602 4.21545 16.1495 3.04611 17.2229 2.56611C17.2389 2.55945 17.2549 2.55278 17.2695 2.54611C18.6935 1.91411 20.3402 2.74745 20.6789 4.26611L21.4095 7.53678C22.0335 10.2328 20.9855 12.9034 18.7135 14.5008Z" fill="white"/>
<path id="Vector_8" d="M19.1852 46.953L15.2852 52.5076C14.4919 53.6383 12.9226 53.901 11.8092 53.0863C11.7946 53.0756 11.7812 53.0663 11.7679 53.057C10.6852 52.2623 10.4346 50.745 11.2052 49.645L15.1012 44.0876C15.8866 42.969 17.4252 42.6889 18.5532 43.4609C19.6999 44.2463 19.9839 45.8156 19.1852 46.953Z" fill="white"/>
<path id="Vector_9" d="M10.8341 23.4044C10.3194 24.7324 8.82872 25.3951 7.49805 24.8858L2.77939 23.0778C1.57139 22.6151 0.952718 21.2791 1.36472 20.0538C1.38605 19.9898 1.40739 19.9271 1.42872 19.8631C1.87539 18.5671 3.29005 17.9124 4.57005 18.4071L9.46072 20.2978C10.6981 20.7764 11.3127 22.1671 10.8341 23.4044Z" fill="white"/>
<path id="Vector_10" d="M31.768 2.49198V9.59065C31.768 10.968 30.652 12.084 29.276 12.084H29.268C27.892 12.084 26.776 10.968 26.776 9.59065V2.49198C26.776 1.12398 27.8787 0.00131798 29.2467 -1.52588e-05C29.2547 -1.52588e-05 29.264 -1.52588e-05 29.272 -1.52588e-05C29.28 -1.52588e-05 29.2894 -1.52588e-05 29.2974 -1.52588e-05C30.6654 0.00131798 31.768 1.12398 31.768 2.49198Z" fill="white"/>
<path id="Vector_11" d="M51.8591 35.8902C51.7098 36.2142 51.5098 37.0635 52.2591 37.7875L54.8098 40.2875C55.5885 41.0528 55.7751 42.2368 55.2671 43.2035L55.2565 43.2222C54.4831 44.6928 52.5111 45.0062 51.3191 43.8462L48.7631 41.3555C46.7671 39.4342 46.1938 36.6142 47.2165 34.0435C48.2391 31.4728 50.5858 29.8502 53.3565 29.8248L56.0418 29.7875C57.5138 29.7675 58.6925 31.0328 58.5378 32.4968C58.5365 32.5128 58.5338 32.5302 58.5325 32.5462C58.3978 33.7955 57.3671 34.7555 56.1111 34.7755L53.4311 34.8168C52.3831 34.8168 51.9831 35.5662 51.8591 35.8902Z" fill="white"/>
<path id="Vector_12" d="M50.6055 9.1503C51.6855 10.297 51.3935 12.1583 50.0375 12.961L46.9668 14.7756C45.8695 15.3996 44.6962 15.7236 43.5482 15.7236C42.1255 15.7236 40.7015 15.249 39.5042 14.3503C37.2842 12.6783 36.3348 9.9583 37.0335 7.28763L37.8362 4.1863C38.2162 2.7143 39.8282 1.9103 41.2175 2.5263C41.2335 2.53297 41.2482 2.54097 41.2642 2.54763C42.3855 3.0463 42.9948 4.2703 42.6828 5.45697L41.8762 8.53563C41.6002 9.55963 42.2242 10.1583 42.5002 10.3583C42.7735 10.557 43.5228 11.0063 44.4215 10.457L47.4895 8.65563C48.4735 8.0783 49.7375 8.23563 50.5242 9.06363C50.5508 9.09297 50.5788 9.12097 50.6055 9.1503Z" fill="white"/>
<path id="Vector_13" d="M46.7725 53.0574C46.7591 53.0668 46.7458 53.0774 46.7325 53.0868C45.6191 53.9001 44.0511 53.6388 43.2591 52.5094L39.3485 46.9401C38.5551 45.8094 38.8351 44.2481 39.9725 43.4641C41.0951 42.6908 42.6325 42.9654 43.4165 44.0814L47.3325 49.6454C48.1058 50.7454 47.8565 52.2628 46.7725 53.0574Z" fill="white"/>
<path id="Vector_14" d="M55.7001 23.0797L50.9334 24.9144C49.6521 25.4077 48.2134 24.7704 47.7174 23.4891C47.2201 22.2064 47.8601 20.7624 49.1441 20.2677L53.9267 18.4224C55.2294 17.9197 56.6894 18.6024 57.1387 19.9251L57.1547 19.9717C57.5827 21.2304 56.9401 22.6024 55.7001 23.0797Z" fill="white"/>
</g>
</svg>
